<svg id="eyvFpumkcWg1" xmlns="http://www.w3.org/2000/svg" xmlns:xlink="http://www.w3.org/1999/xlink" viewBox="0 0 126.4 183.4" shape-rendering="geometricPrecision" text-rendering="geometricPrecision"><style><![CDATA[#eyvFpumkcWg2_tr {animation: eyvFpumkcWg2_tr__tr 3000ms linear infinite normal forwards}@keyframes eyvFpumkcWg2_tr__tr { 0% {transform: translate(26.415883px,155.129448px) rotate(0deg)} 16.666667% {transform: translate(26.415883px,155.129448px) rotate(22.124403deg)} 33.333333% {transform: translate(26.415883px,155.129448px) rotate(0deg)} 100% {transform: translate(26.415883px,155.129448px) rotate(0deg)}}]]></style><g id="eyvFpumkcWg2_tr" transform="translate(26.415883,155.129448) rotate(0)"><g transform="translate(-26.415883,-155.129448)"><path d="M38,138.2c-1.5.2-3.9-.3-4.9-.3-2.6-.1-5.1,0-7.7.3-5.2.6-10.3,2.3-14.7,5-.7.4-1.3.9-1.9,1.4-1.2,1.4-2.2,2.9-3,4.6c0,.9,1.7.3,3.3-.4-1.6,1.3-2.9,3-3.7,4.9-.2.9-.2,1.9-.2,2.8.1,0,.2-.1.3-.1.4-.3.9-.7,1.3-1-1.3,2.5-1.4,5.4-.3,7.9c1.9,5.2,5.1,7.6,10.4,9.3c3.3,1,6.9.4,8.8-2.7c1-1.6,1.4-3.5,1-5.3-.3-1.3-.6-2.5-.9-3.7.3.5.6,1,.9,1.5.3.4,1-.3,1.1-.6.3-1.8,0-3.6.5-5.4.7-2.2,2.1-4.1,4.1-5.3-.3.8-.5,1.7-.5,2.6c0,.3.1.3.3.3c1.3-1.9,3.4-3.3,5.7-3.7c2.2-.4,4.5-.8,6.7-1.3c1.7-.9,2.8-2.6,3-4.5.5-5.6-5-9.1-9.6-6.3Z" fill="#78372a"/></g></g><g><path d="M88.2,147.1c0,0-4.7,8.9,1.4,10.3c6.1,1.5,5.8.5,9.4,2.6s13.8,3.3,18.5,1.7c3.1-1.1,4.1-5.4,1.1-8-1.6-1.4-5-2-8.2-2.2-9.3-.6-8.8-4-8.8-4l-13.4-.4Z" fill="#583820"/><path d="M106.7,151c-5.5,3.6-11.9,5.6-18.5,5.8-3.8-2.5,0-9.7,0-9.7l13.5.4c-.1,0-.3,2.4,5,3.5Z" opacity="0.5" fill="#6e4429"/><path d="M103.1,153.6c0,0,7.9.1,8.3,3.6.3,3.5-.6,5-.6,5s.7-5.1-.9-6.4c-2.2-1.7-6.8-2.2-6.8-2.2Z" fill="#3e2214"/><path d="M109.1,152.9c0,0,7.9.1,8.3,3.6.3,3.5-.6,5-.6,5s.7-5.1-.9-6.4c-2.1-1.6-6.8-2.2-6.8-2.2Z" fill="#3e2214"/><path d="M90,115.2c2.7-4.5,6-8.6,9.9-12.2c4.6-4,11.3-5.2,15.8-.4c10.1,10.9,8.1,30.6-1.6,41.2-4.7,5.2-12.4,11.5-20.1,10.8-6.7-.6-10.3-6.6-10.9-12.6-1-9.5,1.9-18.4,6.8-26.4c0-.2.1-.3.1-.4Z" fill="#6e4429"/><path d="M90,115.2c2.7-4.5,6-8.6,9.9-12.2c4.6-4,11.3-5.2,15.8-.4c10.1,10.9,8.1,30.6-1.6,41.2-4.7,5.2-12.4,11.5-20.1,10.8-6.7-.6-10.3-6.6-10.9-12.6-1-9.5,1.9-18.4,6.8-26.4c0-.2.1-.3.1-.4Z" fill="#6e4429"/><path d="M89.8,115.5c.1-.1.1-.2.2-.3c2.7-4.5,6-8.6,9.9-12.2c3.1-2.8,7.3-4.2,11-3.3-.9,3.9-1.6,7.9-2.9,11.7-1.9,5.8-3.8,11.5-5.7,17.3-2.8,8.7-6.4,17.1-9.9,25.5-5.7-1.3-8.7-6.8-9.3-12.4-1-9.4,1.9-18.2,6.7-26.3Z" opacity="0.5" fill="#6e4429"/><path d="M79.3,86.6l-9.4.1c0,0-14.3,6.1-13.1,30.1s5.8,37,17.4,38.4h1.7c11.6-1.5,16.1-14.6,17-38.6s-13.6-30-13.6-30Z" fill="#c7976b"/><path d="M74.2,114.1c5.6-.5,10.3-3.5,14.6-6.8c1.1-.8,2.1-1.6,3.1-2.5-3.1-14.2-12.5-18.1-12.5-18.1l-9.4.1c0,0-10.2,4.4-12.7,20.4c4.4,4.4,10.2,7.4,16.9,6.9Z" opacity="0.5" fill="#9a6039"/><path d="M62.5,147.2c0,0,4.8,8.8-1.3,10.3s-5.8.6-9.4,2.7-13.8,3.5-18.5,1.9c-3.1-1-4.1-5.3-1.2-8c1.5-1.4,4.9-2,8.2-2.3c9.3-.7,8.7-4.1,8.7-4.1l13.5-.5Z" fill="#583820"/><path d="M44.1,151.4c5.6,3.5,12,5.4,18.6,5.6c3.8-2.5-.2-9.7-.2-9.7l-13.5.5c0,0,.4,2.4-4.9,3.6Z" opacity="0.5" fill="#6e4429"/><path d="M47.7,154c0,0-7.9.2-8.2,3.7s.6,5,.6,5-.8-5.1.8-6.5c2.2-1.6,6.8-2.2,6.8-2.2Z" fill="#3e2214"/><path d="M41.7,153.4c0,0-7.9.2-8.2,3.7s.6,5,.6,5-.8-5.1.8-6.5c2.2-1.7,6.8-2.2,6.8-2.2Z" fill="#3e2214"/><path d="M60.3,115.4c-2.7-4.5-6.1-8.6-10-12.1-4.6-4-11.4-5.1-15.8-.2-10,11.1-7.7,30.7,2.1,41.2c4.8,5.1,12.6,11.3,20.2,10.5c6.7-.7,10.2-6.7,10.7-12.8.9-9.5-2.1-18.3-7.1-26.3l-.1-.3Z" fill="#6e4429"/><path d="M60.3,115.4c-2.7-4.5-6.1-8.6-10-12.1-4.6-4-11.4-5.1-15.8-.2-10,11.1-7.7,30.7,2.1,41.2c4.8,5.1,12.6,11.3,20.2,10.5c6.7-.7,10.2-6.7,10.7-12.8.9-9.5-2.1-18.3-7.1-26.3l-.1-.3Z" fill="#6e4429"/><path d="M60.5,115.7l-.2-.3c-2.7-4.5-6.1-8.6-10-12.1-3.2-2.7-7.3-4.1-11-3.1.9,3.9,1.7,7.9,3,11.7c1.9,5.7,4,11.5,5.9,17.2c2.9,8.6,6.6,17,10.3,25.4c5.7-1.4,8.7-6.9,9.2-12.5.8-9.5-2.2-18.3-7.2-26.3Z" opacity="0.5" fill="#6e4429"/><path d="M94.4,64.5L93.1,44.2l-36.7.2-1.1,20.3c0,0-16.8,18-15.6,29.1s21,67.6,21,67.6h6.3c0,0,7-32.8-2.9-58.6c0,0,2.5,5.4,11,4.6c8.5.7,11-4.7,11-4.7-9.6,25.9-2.2,58.6-2.2,58.6h6.3c0,0,19-56.7,20.2-67.9s-16-28.9-16-28.9Z" fill="#845231"/><path d="M87.8,149.7c-1.9.5-3.8.8-5.6,1.1.8,6.5,1.7,10.6,1.7,10.6h6.3c0,0,2-5.9,4.6-14.2-2.2,1.1-4.6,1.9-7,2.5Z" opacity="0.4" fill="#845231"/><path d="M55.9,147.2c2.8,8.4,4.9,14.3,4.9,14.3h6.3c0,0,.9-4.2,1.6-10.8-4.4-.7-8.7-1.8-12.8-3.5Z" opacity="0.4" fill="#845231"/><path d="M92.1,78.1c.9.8,1.9,1.5,2.3,1.1c1-.6.4-2.6.1-3.5-1-2.9-2.5-5.5-4.5-7.8-4.6-5.3-11.7-10.3-18.7-9.3-6.1,1-11.1,4.6-15.2,9.4-2,2.3-3.5,5-4.4,7.9-.3,1-.9,2.9.1,3.5.5.3,1.4-.3,2.3-1.2-2,3.1-4.5,6.6-3.2,10.3.1.2.2.3.4.3.7.1,1.4-.2,2-.6-1.3,2.7-2.2,5.6-1.5,8.5.1.4.5.3.8.2.8-.5,1.6-1.1,2.1-1.9-2.2,9.2,10.1,15.1,18.7,15.5c9.4-.9,20.8-6.6,18.5-15.8.5.8,1.3,1.4,2.1,1.9.2.1.7.2.8-.2.7-2.9-.2-5.8-1.6-8.4.6.5,1.3.7,2,.6.2,0,.3-.1.4-.3c1.1-3.6-1.4-7.1-3.5-10.2Z" fill="#e9c68e"/><path d="M67.3,152.9c-1.5-1.1-3.6-1.1-5.1-.1-.8-.6-1.8-.8-2.8-.6-1.1.1-2.1.5-2.9,1.2c0,.1-.1.1-.1.2-2.7-1.1-6.1,2.3-6.2,5-.4,7.2,11.6,6.2,15.8,5c4.1-1.2,5.3-7.8,1.3-10.7Z" fill="#845231"/><path d="M62.2,152.8c0,0-4.4,3.3-1.6,10.5c0,0-2.1-6.7,1.6-10.5Z" fill="#592e16"/><path d="M56.4,153.5c-2.6,2.6-3.2,6.5-1.6,9.8c0,0-1.9-5.4,1.6-9.8Z" fill="#592e16"/><path d="M84,163.5c4.2,1.1,16.2,2,15.8-5.2-.2-2.8-3.6-6.1-6.2-5c0-.1-.1-.1-.1-.2-.8-.7-1.9-1.1-3-1.2-1-.2-2,.1-2.8.7-1.6-1-3.6-1-5.1.1-4,3.1-2.9,9.6,1.4,10.8Z" fill="#845231"/><path d="M87.6,152.7c0,0,4.4,3.2,1.8,10.4c0,0,2-6.7-1.8-10.4Z" fill="#592e16"/><path d="M93.5,153.3c2.6,2.5,3.3,6.5,1.7,9.7c0,0,1.8-5.4-1.7-9.7Z" fill="#592e16"/><path d="M73.5,64.6c7.7,0,14.4-1.6,20.5-6.1l-.9-14.2-36.7.2-.8,14.2c3.7,3.9,12.9,5.9,17.9,5.9Z" opacity="0.5" fill="#9a6039"/><path d="M42.8,10.8c-3.8,1.7-7.4,4-10.6,6.7-3.2,2.9-1.9,6.5-1.1,10.1C33.3,38.8,38.8,50.6,48,58c.4.2.8.2,1.2.1.9-.3,1.5-1.2,1.6-2.1.3-3.2.6-6.4.6-9.6.2-8,0-16.1,1.4-24c.8-4.2,2.5-8.1,5-11.5C59,9.3,61,8,62.1,6.3c-6.6-.1-13.3,1.5-19.3,4.5Z" fill="#78372a"/><path d="M47.2,18.1c-1.2,6.6,1.5,13.7,4.5,20.1c0-5.3.5-10.6,1.3-15.8.8-4.2,2.5-8.1,5-11.5c1.2-1.6,3.2-2.9,4.3-4.6-1.2,0-2.4.1-3.6.2-5.3,2.4-10.5,6-11.5,11.6Z" fill="#7a473f"/><path d="M105.7,10.5c3.8,1.7,7.4,3.9,10.6,6.6c3.2,2.8,2,6.4,1.3,10.1-2.1,11.3-7.4,23.1-16.5,30.6-.4.2-.8.2-1.2.1-.9-.3-1.5-1.2-1.6-2.1-.4-3.2-.6-6.4-.8-9.6-.3-8-.2-16.1-1.7-24-.8-4.2-2.6-8.1-5.2-11.4-1.2-1.6-3.2-2.9-4.4-4.5c6.8-.1,13.4,1.3,19.5,4.2Z" fill="#78372a"/><path d="M97.3,39.7c.9-2.1,1.6-4.3,2.1-6.6c1-4,2.2-8.5,2.1-12.6-.1-4.7-2.7-7.9-6-11-.8-.7-1.9-1.9-3-2.9-2.1-.3-4.2-.4-6.3-.4c1.1,1.7,3.2,2.9,4.4,4.5c2.6,3.4,4.3,7.3,5.2,11.4.9,5.9,1.4,11.8,1.5,17.6Z" fill="#7a473f"/><path d="M95.8,35.9c.9-1.8,1.6-3.7,2.1-5.6c1.1-4.9,2.4-11-.4-15.6-2.7-4.4-6.9-7.3-12.2-9.4C78.1,2.5,71.1,2.1,64,5c-5.4,2.3-10.2,5.3-12.9,9.9s-1.4,10.7-.2,15.6c.6,1.9,1.3,3.8,2.2,5.6.1.2.1.4.2.5c1.4,3.7-.3,7-1.2,10.7-1.3,5.1,2.5,8.6,6.9,11.5c4.1,2.7,9.9,3.9,15.5,3.6c5.7.2,11.4-1.1,15.5-3.8c4.4-3,8.1-6.6,6.8-11.6-.9-3.6-2.6-6.9-1.3-10.6.1-.1.2-.2.3-.5Z" fill="#ecdfba"/><path d="M95.8,35.9c.9-1.8,1.6-3.7,2.1-5.6c1.1-4.9,2.4-11-.4-15.6-2.7-4.4-6.9-7.3-12.2-9.4-2.3-.9-4.6-1.5-7.1-1.9c0,5.8.1,11.7.6,17.5.5,6.6,1.4,13.3,5.4,19.1c2.9,4.3,7.5,9.4,6.8,14.6-.3,1.9-1.1,3.6-2.3,5.1.5-.3,1-.6,1.4-.9c4.4-3,8.1-6.6,6.8-11.6-.9-3.6-2.6-6.9-1.3-10.6c0-.3.1-.4.2-.7Z" fill="#c7976b"/><path d="M57.9,48c1.7-2.8,4.5-4.9,6.4-7.7c2.3-3.5,3.7-7.5,4.1-11.6c1-8.4,1.5-16.9,1.5-25.4-2,.3-4,.9-5.9,1.7-5.4,2.3-10.2,5.3-12.9,9.9s-1.4,10.7-.2,15.6c.6,1.9,1.3,3.8,2.2,5.6.1.2.1.4.2.5c1.4,3.7-.3,7-1.2,10.7-1.3,5.1,2.5,8.6,6.9,11.5c1.8,1.1,3.7,2,5.8,2.6-6-2.9-10.4-7.7-6.9-13.4Z" fill="#c7976b"/><path d="M77.1,59.3c-2.2-.4-2.2-1.4-2.2-1.4l-.4-6.3-.3,6.4c0,0,0,1-2.2,1.5s-6.4-1.8-7.4-2.9c0,0,3.2,3.6,7.4,3.8c0,0,1.4.3,2.5-1.5c1.1,1.7,2.5,1.4,2.5,1.4c4.2-.2,7.3-3.9,7.3-3.9-.9,1.1-5.1,3.3-7.2,2.9Z" fill="#5a4236"/><path d="M83.9,46.2c0,2.7-4.2,7-9.4,7s-9.5-4.3-9.5-6.9s4.2-4.8,9.4-4.9c5.3.1,9.5,2.2,9.5,4.8Z" fill="#3f2e25"/><path d="M83.1,45.2c0,1.6-3.8,4.3-8.6,4.3s-8.6-2.6-8.6-4.2s3.8-3.4,8.6-3.4c4.7-.1,8.6,1.7,8.6,3.3Z" fill="#5a4236"/><path d="M72.1,51.3c0-.3,0-.6,0-.8c0-1.1-.1-4-1.7-3.1-1.2.6-.9,2.5-.1,3.4.3.4.6.8.9,1.2.6.6.8-.1.9-.7Z" fill="#271d16"/><path d="M76.3,51.3c0-.3,0-.6-.1-.8c0-1.1.1-4,1.7-3.1c1.2.6.9,2.4.2,3.4-.3.4-.6.8-.9,1.2-.6.5-.8-.1-.9-.7Z" fill="#271d16"/><path d="M47.3,77.8c0,0-6.9,8.2-5.9,17.5s15,50.3,15,50.3-13.7-44.4-13.9-50.2s1.4-11.3,4.8-17.6Z" opacity="0.3" fill="#845231"/><path d="M35.5,103.9c0,0-10.4,9.8-4.2,28.8-.1,0-4.2-14.6,4.2-28.8Z" opacity="0.3" fill="#845231"/><path d="M102.7,77.8c0,0,6.9,8.2,5.9,17.5s-15,50.3-15,50.3s13.7-44.4,13.9-50.2-1.4-11.3-4.8-17.6Z" opacity="0.3" fill="#845231"/><path d="M114.5,103.9c0,0,10.4,9.8,4.2,28.8.1,0,4.2-14.6-4.2-28.8Z" opacity="0.3" fill="#845231"/></g></svg>